<?xml version="1.0" encoding="utf-8"?>
<!-- Created by sK1 2.0rc5 (https://sk1project.net/) -->
<svg xmlns="http://www.w3.org/2000/svg" height="600.0px" width="600.0px" version="1.1" xmlns:xlink="http://www.w3.org/1999/xlink" id="cf0b4ab0-2d37-11ec-8aa6-a315d7fbd18e">
<defs id="defs1">
	<linearGradient y2="830.365234375" spreadMethod="pad" gradientUnits="userSpaceOnUse" x2="614.45703125" y1="830.365234375" x1="14.890625" id="grad1">
		<stop style="stop-color:#ffff00;stop-opacity:1.0;" offset="0.0" />
		<stop style="stop-color:#e18d2d;stop-opacity:1.0;" offset="1.0" />
	</linearGradient>
	<linearGradient y2="636.302734375" spreadMethod="pad" gradientUnits="userSpaceOnUse" x2="479.83984375" y1="636.302734375" x1="443.25390625" id="grad2">
		<stop style="stop-color:#32b5ed;stop-opacity:0.396078431373;" offset="0.0" />
		<stop style="stop-color:#00aeff;stop-opacity:1.0;" offset="1.0" />
	</linearGradient>
	<linearGradient y2="690.150390625" spreadMethod="pad" gradientUnits="userSpaceOnUse" x2="527.01953125" y1="690.150390625" x1="490.2109375" id="grad3">
		<stop style="stop-color:#00b2ff;stop-opacity:1.0;" offset="0.0" />
		<stop style="stop-color:#0000af;stop-opacity:0.835294117647;" offset="1.0" />
	</linearGradient>
	<linearGradient y2="715.646484375" spreadMethod="pad" gradientUnits="userSpaceOnUse" x2="473.97265625" y1="715.646484375" x1="437.3125" id="grad4">
		<stop style="stop-color:#00b2ff;stop-opacity:1.0;" offset="0.0" />
		<stop style="stop-color:#0000af;stop-opacity:0.835294117647;" offset="1.0" />
	</linearGradient>
</defs>
<g>
	<path style="fill:url(#grad1);" d="M 153.058,576.9287 C 154.996,580.2968 158.014,586.1515 162.148,587.1124 167.305,588.3114 177.435,581.4454 182.058,579.1725 193.634,573.4812 205.449,568.2873 217.058,562.6702 222.417,560.0773 229.023,555.3569 235.057,554.7914 240.801,554.2531 244.522,561.2468 240.62,565.5383 235.367,571.3178 224.922,573.7688 218.058,577.1764 211.44,580.4618 204.666,583.3864 198.058,586.6818 188.162,591.6172 177.809,595.7301 168.058,600.9287 168.933,603.1718 169.719,606.3972 171.757,607.9009 175.846,610.9175 187.278,607.9825 192.058,607.3531 205.662,605.5616 219.441,605.2551 233.058,603.6432 237.962,603.0627 246.447,600.9237 251.014,603.1471 255.465,605.3143 257.027,610.936 252.829,614.1903 250.463,616.0245 246.946,616.4549 244.058,616.7589 221.0,619.186 197.226,622.4504 174.058,622.9287 L 174.058,632.9287 C 194.522,637.6197 214.75,643.7047 235.058,649.0447 239.985,650.3397 254.455,652.6417 250.82,660.8847 247.334,668.7927 236.981,663.7827 231.058,662.3017 211.379,657.3807 191.926,651.0297 172.058,646.9287 170.86,649.6357 168.703,653.5597 169.755,656.6027 171.416,661.4097 181.01,665.8287 185.058,668.5847 195.106,675.4257 205.133,682.3347 215.058,689.3527 219.388,692.4157 225.142,695.2227 228.624,699.2547 232.332,703.5487 229.155,711.0797 223.058,710.2707 216.635,709.4187 209.309,701.8047 204.058,698.2587 198.691,694.6347 193.367,690.9187 188.058,687.2087 179.719,681.3817 170.808,673.0357 161.058,669.9287 159.557,672.5417 156.279,675.8157 156.21,678.9287 156.114,683.2657 161.682,688.5907 164.058,691.9287 171.153,701.8957 178.072,711.9837 185.198,721.9287 188.589,726.6607 198.868,736.5107 194.311,742.7007 188.237,750.9507 180.919,739.5827 177.717,734.9287 169.626,723.1687 161.161,711.6647 153.033,699.9287 150.297,695.9767 146.841,688.1927 141.055,690.7767 131.438,695.0707 135.756,702.9867 137.907,710.9287 140.794,721.5877 143.525,732.2897 146.482,742.9287 147.898,748.0217 150.978,754.6077 150.645,759.9277 150.289,765.6147 143.719,768.8297 139.477,764.6107 135.279,760.4367 134.406,751.4707 132.942,745.9287 131.355,739.9207 129.765,733.9037 128.058,727.9287 125.541,719.1207 122.391,709.9887 121.058,700.9287 116.36,701.5357 111.8051,702.7247 107.058,702.9287 103.9032,719.9217 104.3774,737.7467 102.3435,754.9287 101.7165,760.2257 102.7087,770.5507 95.0541,771.2667 86.338,772.0817 87.8033,761.1457 88.0935,755.9287 89.0779,738.2307 92.058,720.6897 92.058,702.9287 88.271,702.7657 81.8593,700.1717 78.4484,702.0457 74.6557,704.1297 73.0943,711.2577 71.3026,714.9287 66.6297,724.5027 62.3868,734.2937 57.8389,743.9287 55.8465,748.1497 54.4723,753.4317 50.845,756.6097 46.4147,760.4927 39.3133,756.9247 39.9237,750.9287 40.2739,747.4897 42.812,744.0357 44.1969,740.9287 47.4783,733.5657 50.7665,726.1737 54.3026,718.9287 58.1322,711.0827 61.8997,703.0697 65.058,694.9287 60.3036,692.3877 56.087,688.8627 51.058,686.9287 36.6975,711.5327 27.2255,740.0977 21.6583,767.9287 15.0805,800.8107 12.6101,835.6217 17.3581,868.9287 31.4133,967.5237 92.7435,1055.9707 183.058,1099.6707 235.237,1124.9177 296.504,1135.8297 354.058,1127.6287 380.849,1123.8107 405.586,1115.5457 431.058,1106.9287 429.749,1096.5177 434.357,1093.0537 440.058,1084.9287 434.742,1083.5537 428.481,1083.2777 424.167,1079.5347 417.924,1074.1177 420.571,1065.4577 428.059,1062.6747 432.914,1060.8707 438.998,1063.8207 444.058,1063.9287 442.498,1059.1337 439.232,1053.0677 440.506,1047.9287 442.22,1041.0167 450.322,1037.4727 455.953,1042.2357 460.219,1045.8447 461.848,1051.6997 463.058,1056.9287 468.156,1054.3477 470.814,1048.6757 476.058,1046.2617 482.09,1043.4847 490.163,1049.2967 489.466,1055.9287 488.813,1062.1507 482.557,1066.4737 480.058,1071.9287 483.291,1072.1837 486.846,1073.2457 490.058,1072.4847 493.831,1071.5897 497.062,1068.5857 500.058,1066.2777 505.916,1061.7647 511.707,1056.9967 517.058,1051.8897 539.376,1030.5847 558.704,1007.5487 574.455,980.9287 624.458,896.4197 626.163,792.8387 587.482,703.9287 577.998,682.1267 564.698,661.4577 549.858,642.9287 544.429,636.1497 538.685,627.2963 531.058,622.9287 535.571,642.1187 510.13,653.0597 498.707,636.9247 492.343,627.9362 496.807,619.446 501.471,610.9287 503.08,607.9899 506.173,603.535 505.82,600.0182 505.336,595.1877 496.614,590.6639 493.058,588.0807 479.481,578.2195 463.364,565.6258 447.058,560.9287 450.785,569.8795 459.298,579.8605 454.485,589.9287 446.764,606.0824 422.655,601.9956 421.283,583.9287 420.501,573.624 430.702,563.8458 433.058,553.9287 361.396,524.5285 283.036,522.6237 210.058,548.6208 189.786,555.8422 171.756,566.5585 153.058,576.9287 Z" />
	<path style="fill-opacity:0.58431372549;fill:#6b89e8;" d="M 442.058,569.9287 C 440.977,573.5854 441.058,577.1279 441.058,580.9287 448.702,580.3188 446.128,573.9606 442.058,569.9287 Z" />
	<path style="fill:url(#grad2);" d="M 461.239,607.9889 C 456.949,608.72 454.446,619.525 452.8,622.9287 449.559,629.6263 444.298,636.4057 443.374,643.9287 441.99,655.1907 452.584,666.3157 464.058,664.4467 466.492,664.0497 468.95,663.2097 471.057,661.9237 487.175,652.0867 477.308,636.3027 471.316,623.9287 469.661,620.5087 466.291,607.1278 461.239,607.9889 Z" />
	<path style="fill-opacity:0.58431372549;fill:#6b89e8;" d="M 517.058,612.9287 C 516.658,614.6089 516.252,616.219 516.153,617.9526 516.047,619.8039 517.806,627.705 520.79,623.306 523.009,620.0349 519.143,615.177 517.058,612.9287 Z" />
	<path style="stroke:#2e2b2b;stroke-width:2.0;stroke-miterlimit:0.0;fill:#fefefe;" d="M 307.058,617.4465 C 303.644,618.1707 300.145,619.4414 297.058,621.0637 278.645,630.7417 280.058,649.1257 280.058,666.9287 L 280.058,708.9287 280.058,895.9287 280.058,956.9287 C 280.058,967.0327 278.915,977.9207 280.358,987.9287 283.857,1012.1967 308.604,1020.2367 330.058,1016.1237 333.897,1015.3877 337.54,1014.3897 341.058,1012.6557 360.961,1002.8447 360.058,983.1087 360.058,963.9287 L 360.058,924.9287 360.058,740.9287 360.058,680.9287 C 360.058,670.4537 361.123,659.3217 359.769,648.9287 358.715,640.8417 355.681,632.0177 349.873,626.1023 339.804,615.848 320.562,614.582 307.058,617.4465 Z" />
	<path style="fill-opacity:0.58431372549;fill:#ff0000;" d="M 294.058,815.9287 L 346.058,816.9287 346.058,796.9287 C 338.369,796.9287 328.491,798.5897 321.073,796.4947 317.484,795.4817 314.433,791.8637 315.705,787.9727 316.755,784.7637 319.96,783.3847 323.058,783.0377 330.556,782.1977 338.513,782.9287 346.058,782.9287 L 346.058,756.9287 C 338.369,756.9287 328.491,758.5897 321.073,756.4947 317.484,755.4817 314.433,751.8637 315.705,747.9727 316.755,744.7637 319.96,743.3847 323.058,743.0377 330.556,742.1977 338.513,742.9287 346.058,742.9287 L 346.058,716.9287 C 338.369,716.9287 328.491,718.5897 321.073,716.4947 317.484,715.4817 314.433,711.8637 315.705,707.9727 316.755,704.7637 319.96,703.3847 323.058,703.0377 330.556,702.1977 338.513,702.9287 346.058,702.9287 L 346.058,676.9287 C 338.369,676.9287 328.491,678.5897 321.073,676.4947 317.484,675.4817 314.433,671.8637 315.705,667.9727 316.755,664.7637 319.96,663.3847 323.058,663.0377 330.556,662.1977 338.513,662.9287 346.058,662.9287 346.058,653.6407 346.506,642.1537 338.87,635.3227 334.13,631.0817 328.047,630.9307 322.058,630.9287 311.383,630.9247 298.707,631.6667 294.862,643.9287 293.125,649.4677 294.058,656.1907 294.058,661.9287 L 294.058,697.9287 294.058,815.9287 Z" />
	<path style="fill:#fefefe;" d="M 415.541,633.0147 C 412.41,634.8667 411.177,640.8187 409.749,643.9287 405.124,654.0037 396.743,664.2087 399.591,675.9287 402.292,687.0417 416.251,692.4427 426.057,686.8387 427.864,685.8067 429.457,684.4297 430.844,682.8847 441.584,670.9167 431.288,658.4627 425.839,646.9287 424.401,643.8857 420.724,629.9497 415.541,633.0147 Z" />
	<path style="fill-opacity:0.58431372549;fill:#6b89e8;" d="M 465.058,631.9287 C 464.807,633.9127 464.355,635.9317 464.247,637.9287 464.132,640.0577 466.19,646.1937 468.992,642.3057 471.333,639.0577 467.201,634.0517 465.058,631.9287 M 420.058,656.9287 C 419.848,658.5927 419.494,660.2817 419.363,661.9527 419.206,663.9447 420.915,670.7777 424.019,667.1277 426.736,663.9327 422.61,658.6017 420.058,656.9287 Z" />
	<path style="fill:url(#grad3);" d="M 508.239,661.9887 C 504.068,662.6997 501.469,673.5867 499.81,676.9287 496.645,683.3037 491.036,690.7357 490.307,697.9287 489.061,710.2337 500.031,720.1577 512.058,718.0697 514.523,717.6417 516.892,716.7707 519.018,715.4457 534.339,705.8937 523.951,689.5667 518.316,677.9287 516.661,674.5087 513.291,661.1277 508.239,661.9887 Z" />
	<path style="fill-opacity:0.58431372549;fill:#6b89e8;" d="M 512.058,685.9287 C 511.75,687.5897 511.368,689.2647 511.232,690.9527 511.069,692.9747 512.819,700.7077 515.992,696.3057 518.333,693.0577 514.201,688.0517 512.058,685.9287 Z" />
	<path style="fill:url(#grad4);" d="M 454.317,688.0147 C 450.58,690.0077 449.067,697.3397 447.302,700.9287 443.648,708.3607 437.02,717.3277 437.322,725.9287 437.807,739.7807 453.157,747.9717 465.054,741.3707 481.915,732.0157 470.768,714.0387 464.814,701.9287 463.183,698.6097 459.864,685.0577 454.317,688.0147 Z" />
	<path style="fill-opacity:0.58431372549;fill:#6b89e8;" d="M 459.058,711.9287 C 458.423,714.5977 457.104,718.8817 459.081,721.3057 461.589,724.3797 463.86,720.4297 463.365,717.9137 462.963,715.8717 461.839,713.8457 461.058,711.9287 L 459.058,711.9287 Z" />
	<path style="fill:#424242;" d="M 385.058,785.4617 C 362.236,791.0087 372.442,825.8907 395.058,820.3957 407.649,817.3357 412.198,800.8727 404.269,791.1137 399.673,785.4567 391.964,783.7837 385.058,785.4617 M 471.058,834.9287 C 467.27,834.9287 460.958,833.7257 457.691,835.9567 453.149,839.0587 451.812,845.0007 445.058,844.6097 430.956,843.7937 432.873,822.4067 433.892,812.9287 434.275,809.3677 434.306,805.9787 436.572,802.9837 443.256,794.1497 453.97,798.8507 457.058,807.9287 L 471.058,807.9287 C 469.288,787.7797 444.818,779.1547 429.073,790.7177 421.534,796.2547 419.291,806.0257 419.073,814.9287 418.772,827.2197 417.886,842.3377 428.232,851.0257 443.433,863.7917 469.253,855.4697 471.058,834.9287 Z" />
	<path style="fill:#0000ff;" d="M 388.073,795.7137 C 378.905,798.7887 382.884,812.6647 392.015,810.2317 401.494,807.7067 397.336,792.6077 388.073,795.7137 M 346.058,849.9287 L 346.058,835.9287 328.058,835.9297 C 325.215,835.9447 321.812,835.6967 319.492,837.6707 315.361,841.1867 317.534,847.3717 322.077,849.1867 328.695,851.8287 338.994,849.9287 346.058,849.9287 Z" />
	<path style="fill:#0000ff;" d="M 346.058,889.9287 L 346.058,875.9287 328.058,875.9297 C 325.215,875.9447 321.812,875.6967 319.492,877.6707 315.361,881.1867 317.534,887.3717 322.077,889.1867 328.695,891.8287 338.994,889.9287 346.058,889.9287 M 346.058,929.9287 L 346.058,915.9287 328.058,915.9297 C 325.215,915.9447 321.812,915.6967 319.492,917.6707 315.361,921.1867 317.534,927.3717 322.077,929.1867 328.695,931.8287 338.994,929.9287 346.058,929.9287 Z" />
	<path style="fill:#fefefe;" d="M 429.058,969.9287 C 424.53,966.7397 420.636,960.8607 415.058,959.5417 406.665,957.5557 400.998,966.5847 403.8,973.9287 405.624,978.7077 410.532,982.4027 414.058,985.9287 408.986,986.3707 402.076,987.5247 398.286,991.2077 393.211,996.1397 394.455,1005.0987 401.098,1007.9197 406.731,1010.3117 413.424,1007.0247 419.058,1005.9287 417.946,1011.3037 414.967,1017.4117 416.712,1022.9137 419.029,1030.2237 428.504,1032.1287 433.779,1026.7007 437.511,1022.8607 438.372,1016.0247 439.058,1010.9287 442.584,1014.4547 446.279,1019.3627 451.058,1021.1867 458.402,1023.9887 467.431,1018.3217 465.445,1009.9287 464.126,1004.3507 458.247,1000.4567 455.058,995.9287 459.813,994.9447 466.181,994.0847 469.83,990.6257 474.9,985.8177 473.791,976.3297 467.043,973.6707 461.224,971.3787 454.652,974.4337 449.058,975.9287 450.329,970.3837 453.547,963.6247 451.316,957.9437 448.64,951.1297 439.192,950.1607 434.337,955.1567 430.751,958.8467 430.057,965.0877 429.058,969.9287 Z" />
	<path style="fill:#0000ff;" d="M 346.058,969.9287 L 346.058,955.9287 328.058,955.9297 C 325.215,955.9447 321.812,955.6967 319.492,957.6707 315.361,961.1867 317.534,967.3717 322.077,969.1867 328.695,971.8287 338.994,969.9287 346.058,969.9287 M 433.058,984.9287 C 427.749,980.3367 423.451,974.6037 418.058,970.0777 416.659,968.9037 412.799,965.8807 411.234,968.5517 409.943,970.7557 412.823,973.5027 414.117,974.9287 418.723,980.0007 424.099,984.3077 428.058,989.9287 421.326,990.8357 414.556,992.7717 408.073,994.7927 406.174,995.3847 401.833,996.7087 403.314,999.6257 404.563,1002.0837 408.079,1000.8627 410.058,1000.3447 416.732,998.5957 423.417,996.7997 430.058,994.9287 427.669,1003.3477 422.564,1014.2487 425.058,1022.9287 432.298,1020.0877 434.102,1004.0257 435.058,996.9287 440.289,1000.6137 444.443,1005.5017 449.058,1009.9097 450.678,1011.4567 453.169,1014.4217 455.735,1014.0077 458.941,1013.4897 456.757,1009.3167 455.735,1007.9277 451.413,1002.0527 445.211,997.0817 440.058,991.9287 446.754,991.0267 453.551,988.9257 460.043,987.0397 461.961,986.4827 466.274,985.1437 464.802,982.2307 463.574,979.8017 460.05,980.8507 458.058,981.3587 451.364,983.0647 444.637,984.8247 438.058,986.9287 440.162,980.3487 441.922,973.6227 443.628,966.9287 444.15,964.8817 445.16,961.4217 442.756,960.1047 439.808,958.4897 438.496,963.0177 437.947,964.9337 436.08,971.4407 433.962,978.2217 433.058,984.9287 Z" />
	<path style="fill:#fefefe;" d="M 356.058,1047.9287 C 351.689,1045.0477 346.484,1041.2707 341.058,1041.0777 333.462,1040.8067 328.118,1049.1027 331.747,1055.8357 334.451,1060.8517 341.057,1063.7737 346.058,1065.9287 341.576,1068.5717 335.928,1070.7797 332.711,1075.0327 327.837,1081.4757 332.062,1090.5177 340.059,1091.2747 345.788,1091.8177 351.245,1087.4637 356.058,1084.9287 356.058,1090.3617 355.092,1096.9837 358.286,1101.7407 362.618,1108.1907 372.19,1107.8377 375.879,1100.8857 378.223,1096.4687 377.058,1089.7807 377.058,1084.9287 381.76,1086.8967 386.868,1091.3767 392.058,1091.5297 400.174,1091.7697 405.444,1083.0827 401.601,1076.0217 398.946,1071.1447 392.505,1068.8627 388.058,1065.9287 392.633,1063.7927 398.458,1061.2477 401.316,1056.8857 405.705,1050.1857 400.865,1041.4067 393.058,1041.0767 387.175,1040.8287 381.997,1045.2997 377.058,1047.9287 377.058,1042.7087 378.228,1035.7627 375.601,1031.0337 371.827,1024.2397 362.022,1024.7427 358.067,1030.9727 355.01,1035.7887 356.058,1042.4877 356.058,1047.9287 Z" />
	<path style="fill:#0000ff;" d="M 364.058,1060.9287 C 358.307,1057.8677 352.865,1054.2107 347.058,1051.2527 345.157,1050.2847 341.789,1048.4017 339.72,1049.9847 337.336,1051.8097 340.698,1054.4817 342.117,1055.4647 347.872,1059.4487 354.639,1063.1627 361.058,1065.9287 355.42,1069.2537 349.647,1072.3767 344.063,1075.7937 342.197,1076.9357 338.509,1078.9227 338.979,1081.6467 339.558,1084.9997 344.471,1082.5397 346.058,1081.7347 352.239,1078.5987 358.455,1074.9997 364.058,1070.9287 364.058,1077.9247 363.93,1084.9337 364.063,1091.9277 364.097,1093.7417 363.83,1097.5647 366.317,1098.0077 369.094,1098.5027 369.827,1094.8667 369.999,1092.9237 370.611,1086.0287 370.058,1078.8527 370.058,1071.9287 376.3,1074.8427 381.869,1079.0317 388.058,1082.0187 389.831,1082.8747 393.67,1084.4137 394.712,1081.6387 395.705,1078.9977 391.775,1076.9997 390.053,1075.9437 384.444,1072.5017 378.557,1069.5557 373.058,1065.9287 380.506,1062.4517 392.328,1057.5177 396.058,1049.9287 387.38,1047.5727 377.191,1056.5627 370.058,1060.9287 370.058,1053.9487 370.343,1046.9027 370.039,1039.9297 369.956,1038.0337 369.802,1034.1357 367.058,1034.1357 364.314,1034.1357 364.16,1038.0337 364.077,1039.9297 363.773,1046.9027 364.058,1053.9487 364.058,1060.9287 M 455.058,1073.9287 C 448.699,1073.4227 442.263,1071.9287 436.058,1070.4547 434.028,1069.9727 430.625,1068.5577 428.948,1070.5567 426.655,1073.2907 431.101,1075.3087 433.063,1075.8697 439.811,1077.7987 447.158,1078.5907 454.058,1079.9287 448.155,1086.3377 439.894,1093.5717 437.058,1101.9287 L 438.058,1102.9287 C 447.328,1100.1747 452.773,1090.7517 459.058,1083.9287 L 461.058,1090.9287 C 466.027,1089.4157 465.849,1086.2927 464.058,1081.9287 470.928,1082.8157 474.928,1083.8997 481.058,1079.9287 476.658,1077.5887 470.999,1077.1407 466.058,1076.9287 469.513,1070.9507 474.681,1066.3757 478.868,1060.9287 480.083,1059.3477 482.786,1055.8527 480.45,1054.0147 478.214,1052.2567 475.359,1055.5997 474.008,1056.9877 469.253,1061.8687 465.375,1067.6417 460.058,1071.9287 459.066,1065.2117 456.497,1058.2767 454.039,1051.9477 453.339,1050.1447 450.606,1045.2167 448.326,1048.5517 446.909,1050.6227 448.388,1053.8517 449.06,1055.9287 451.001,1061.9347 453.398,1067.8457 455.058,1073.9287 Z" />
</g>
</svg>